<svg class="logo" height="37.79" width="184" viewBox="0 0 223.67 45.48">
    <path d="M109 3.62l-1.38-.36h-2.42l-.36.36v14.53l.41 1.22h-4l.41-1.22V3.62l-.39-.36h-2.56l-1.32.36L98 0h10.37zm16.42 15.75h-4.06l.29-.77-.72-3-.38-.38h-3.19l-.38.38-.71 3 .28.77h-4l.63-1.3 4-16.95-.43-1.12h4.41l-.36 1.12 4 17zM118 12h1.88l.31-.28L119 5.53l-1.25 6.19zm17.71 7.37h-4l.41-1.22V1.25L131.71 0h4l-.41 1.25v16.9zm16.77 0h-9.69l.41-1.22V1.25L142.79 0h4l-.38 1.25v14.53l.38.35h5l1.32-.35zM173 18.2l.31 1.17h-4.41l.3-1.17L167 7l-2.11 11.2.3 1.17h-4.43l.3-1.17-3.46-16.31-.74-1.89h4l-.23.74L163 12.46l2.32-11.39L165 0h4l-.28 1.07 2.34 11.39L173.42.74l-.28-.74h4.05l-.76 1.86zm14.49 1.17h-4l.41-1.22V1.25L183.48 0h4l-.41 1.25v16.9zm11.08 0h-4l.41-1.22V1.25L194.57 0h3.59l4.69 11.8V1.25L202.44 0h4.06l-.41 1.25v16.9l.41 1.22h-3.65l-4.69-11.78v10.56zM213.58 0H222l1.63 1.58v16.18L222 19.37h-8.46l.35-1.25V1.22zm3.59 15.73l.38.38H220l.39-.38V3.57l-.39-.38h-2.47l-.38.38zM109 29.1l-1.38-.36h-2.42l-.36.36v14.53l.41 1.22h-4l.41-1.22V29.1l-.39-.36h-2.56l-1.32.36.61-3.62h10.37zm6.35 15.75l.41-1.22v-16.9l-.41-1.25h8.46l1.63 1.58v8.82l-1.63 1.63 1.4 6 .51 1.3h-4l.28-1.2-1.38-5.83-.25-.31h-1l-.39.38v5.74l.41 1.22zm6.47-10.55l.39-.36V29.1l-.39-.36h-2.49l-.39.36v4.84l.39.36zm23.04 10.55h-4.05l.28-.76-.72-3-.38-.38h-3.19l-.38.38-.71 3 .28.76h-4.05l.63-1.3 4-16.95-.36-1.12h4.41l-.35 1.12 4 16.95zm-7.39-7.37h1.88l.31-.28-1.25-6.2-1.25 6.19zm13.68-12h8.46l1.63 1.58v16.18l-1.63 1.61h-8.46l.36-1.25V26.7zm3.59 15.73l.38.38h2.48l.38-.38V29.05l-.38-.38h-2.48l-.38.38zm13.79 3.64l.4-1.25V26.7l-.4-1.22h9.68l.59 3.57-1.33-.38h-5l-.38.38v4l.38.38h1.63l1.25-.41v4.06l-1.25-.41h-1.6l-.38.36v4.18l.38.38h5l1.33-.38-.59 3.64zm16.71 0l.41-1.22v-16.9l-.41-1.25h8.46l1.63 1.58v8.82l-1.63 1.63 1.41 6 .51 1.3h-4l.28-1.2-1.37-5.83-.26-.31h-1l-.38.38v5.74l.4 1.22zm6.48-10.55l.38-.36V29.1l-.38-.36h-2.5l-.38.36v4.84l.38.36zM213 31.6h-4l.38-1.23V29.1l-.38-.36h-2.47l-.38.36v4.08l.38.38H211l1.61 1.61v8.07L211 44.85h-6.44l-1.69-1.61V40l-.35-1.22h4l-.4 1.22v1.28l.38.35h2.5l.38-.35v-4.1l-.38-.38h-4.43l-1.69-1.63v-8.11l1.69-1.58H211l1.61 1.58v3.31zM51.85.32H0v14.73h14.88v30.43h15.14V23.72l14.24-12.37 14.23 12.37v21.76h15.15V15.05h14.87V.32H51.85z"/>
    <path d="M38.87 34.27h10.76v11.21H38.87z"/>
</svg>
