<svg width="32" height="32" viewBox="0 0 32 32" fill="none" xmlns="http://www.w3.org/2000/svg">
<path d="M15.75 0.9375C15.75 0.41973 15.3303 0 14.8125 0C14.2947 0 13.875 0.41973 13.875 0.9375V1.5H3.9375C1.76288 1.5 0 3.26288 0 5.4375V20.8125C0 22.9871 1.76288 24.75 3.9375 24.75H8.89245L5.49862 28.4266C5.1474 28.8071 5.17118 29.4002 5.55165 29.7514C5.93205 30.1025 6.52523 30.0788 6.87638 29.6984L11.3764 24.8234C11.3982 24.7997 11.4186 24.7752 11.4376 24.75H15.312C15.8907 23.4256 17.2123 22.5 18.75 22.5H20.0313C18.7856 21.4006 18 19.7921 18 18C18 14.6863 20.6863 12 24 12C27.3137 12 30 14.6863 30 18V5.4375C30 3.26288 28.2371 1.5 26.0625 1.5H15.75V0.9375ZM5.25 8.0625C5.25 7.5447 5.6697 7.125 6.1875 7.125H13.3125C13.8303 7.125 14.25 7.5447 14.25 8.0625C14.25 8.5803 13.8303 9 13.3125 9H6.1875C5.6697 9 5.25 8.5803 5.25 8.0625ZM6.1875 14.25C5.6697 14.25 5.25 13.8303 5.25 13.3125C5.25 12.7947 5.6697 12.375 6.1875 12.375H17.0625C17.5803 12.375 18 12.7947 18 13.3125C18 13.8303 17.5803 14.25 17.0625 14.25H6.1875ZM5.25 18.5625C5.25 18.0447 5.6697 17.625 6.1875 17.625H14.8125C15.3303 17.625 15.75 18.0447 15.75 18.5625C15.75 19.0803 15.3303 19.5 14.8125 19.5H6.1875C5.6697 19.5 5.25 19.0803 5.25 18.5625ZM28.5 18C28.5 15.5147 26.4853 13.5 24 13.5C21.5147 13.5 19.5 15.5147 19.5 18C19.5 20.4853 21.5147 22.5 24 22.5C25.1525 22.5 26.2039 22.0667 27 21.3542C27.9206 20.5302 28.5 19.3328 28.5 18ZM31.5 26.25C31.5 25.0073 30.4927 24 29.25 24H18.75C18.0836 24 17.4849 24.2897 17.0729 24.75C16.7167 25.1481 16.5 25.6737 16.5 26.25V26.786C16.5 29.575 19.6579 31.5 24 31.5C28.3421 31.5 31.5 29.4693 31.5 26.786V26.25Z" fill="white"/>
</svg>
