<svg width="15" height="20" viewBox="0 0 15 20" fill="none" xmlns="http://www.w3.org/2000/svg">
<path d="M1.58602 1.03088C1.51783 0.941393 1.43688 0.87041 1.3478 0.821981C1.25871 0.773553 1.16323 0.748627 1.0668 0.748627C0.970374 0.748627 0.874891 0.773553 0.785804 0.821981C0.696716 0.87041 0.61577 0.941393 0.547586 1.03088C0.479401 1.12036 0.425314 1.22659 0.388413 1.34351C0.351512 1.46043 0.33252 1.58574 0.33252 1.71229C0.33252 1.83884 0.351512 1.96415 0.388413 2.08107C0.425314 2.19798 0.479401 2.30422 0.547586 2.3937L4.73357 7.88543V9.41187C4.73341 10.0295 4.84647 10.6381 5.06321 11.1863C5.27996 11.7345 5.59402 12.2063 5.9789 12.5617C6.36377 12.9171 6.80815 13.1458 7.27453 13.2284C7.7409 13.311 8.21558 13.2452 8.65849 13.0364L9.76586 14.4897C9.0955 14.9672 8.3421 15.2078 7.57953 15.1879C6.81697 15.168 6.07144 14.8883 5.41608 14.3762C4.76072 13.8642 4.21803 13.1374 3.84125 12.2671C3.46447 11.3967 3.26654 10.4128 3.26686 9.41187C3.26686 9.15635 3.18952 8.91131 3.05186 8.73063C2.91419 8.54996 2.72747 8.44846 2.53278 8.44846C2.33808 8.44846 2.15137 8.54996 2.0137 8.73063C1.87603 8.91131 1.79869 9.15635 1.79869 9.41187C1.7982 11.2877 2.31951 13.0992 3.26473 14.5063C4.20995 15.9134 5.51406 16.8192 6.93217 17.0537V19.0363C6.93217 19.2916 7.00944 19.5364 7.14697 19.7169C7.2845 19.8974 7.47103 19.9988 7.66553 19.9988C7.86002 19.9988 8.04656 19.8974 8.18409 19.7169C8.32162 19.5364 8.39888 19.2916 8.39888 19.0363V17.0537C9.2665 16.9112 10.0986 16.5145 10.8336 15.893L13.7465 19.7178C13.8842 19.8985 14.071 20 14.2657 20C14.4605 20 14.6472 19.8985 14.7849 19.7178C14.9226 19.537 15 19.2919 15 19.0363C15 18.7808 14.9226 18.5356 14.7849 18.3549L1.58455 1.03088H1.58602Z" fill="white"/>
<path d="M12.8312 13.0695L11.7312 11.6258C11.9534 10.9243 12.0675 10.1719 12.0671 9.41218C12.0671 9.15693 12.1443 8.91213 12.2819 8.73163C12.4194 8.55114 12.6059 8.44974 12.8004 8.44974C12.9949 8.44974 13.1815 8.55114 13.319 8.73163C13.4565 8.91213 13.5338 9.15693 13.5338 9.41218C13.5338 10.7365 13.28 11.9819 12.8312 13.0695Z" fill="white"/>
<path d="M10.5564 10.084L5.05042 2.8579C5.34856 2.08578 5.83629 1.46805 6.43485 1.10445C7.03341 0.740854 7.70787 0.652604 8.34935 0.85395C8.99083 1.0553 9.56188 1.53449 9.97032 2.21416C10.3788 2.89383 10.6007 3.73432 10.6004 4.59993V9.41217C10.6004 9.64123 10.5858 9.86452 10.5564 10.084Z" fill="white"/>
</svg>
