<svg width="31" height="13" viewBox="0 0 31 13" fill="none" xmlns="http://www.w3.org/2000/svg">
<path d="M19.3065 9.29532L18.6192 6.20247C18.447 6.15796 18.2365 6.10732 17.9952 6.05654C17.2778 5.9055 16.308 5.7574 15.2753 5.7574C14.2425 5.7574 13.2726 5.9055 12.5552 6.05654C12.314 6.10732 12.1035 6.15796 11.9314 6.20247L11.2441 9.29532C10.8764 10.9495 9.54138 12.215 7.86983 12.4936L5.17386 12.943C3.06978 13.2937 1.04178 11.9946 0.480468 9.9367L0.216943 8.9706C-0.419455 6.63731 0.32642 3.96369 2.69122 2.77735C5.28618 1.47539 9.50317 -1.27893e-05 15.2753 0C21.0474 1.27894e-05 25.2643 1.47552 27.8592 2.77735C30.224 3.96369 30.9699 6.63731 30.3336 8.97047L30.07 9.9367C29.5087 11.9946 27.4807 13.2937 25.3766 12.943L22.6807 12.4936C21.0091 12.215 19.6741 10.9495 19.3065 9.29532Z" fill="white"/>
</svg>
