<svg width="16" height="22" viewBox="0 0 16 22" fill="none" xmlns="http://www.w3.org/2000/svg">
<path d="M2.58535 1.17424L4.24558 0.673799C5.37914 0.332107 6.59029 0.884313 7.07577 1.96417L8.2396 4.55311C8.65334 5.47353 8.43529 6.55526 7.69729 7.24349L5.92557 8.89559C5.68763 9.12068 5.86737 9.99916 6.73549 11.5028C7.6036 13.0064 8.27457 13.6015 8.58417 13.5092L10.9055 12.7994C11.8703 12.5045 12.9158 12.8563 13.5061 13.6744L15.1602 15.9667C15.8511 16.9243 15.7268 18.2454 14.8694 19.0574L13.5906 20.2685C12.7501 21.0645 11.5465 21.347 10.4395 21.0082C7.76029 20.1881 5.27877 17.7536 2.96165 13.7402C0.640412 9.71965 -0.2372 6.32928 0.374251 3.559C0.625111 2.42236 1.47088 1.51016 2.58535 1.17424Z" fill="#2F4B66"/>
</svg>
