<svg width="24" height="24" viewBox="0 0 24 24" fill="none" xmlns="http://www.w3.org/2000/svg">
<path d="M7.64563 1.17948C17.7303 -2.85639 27.6809 7.85034 22.2623 17.6039C19.8011 22.034 13.6861 25.6016 6.56582 22.2274L1.61665 23.6414C0.848724 23.8608 0.139081 23.154 0.35457 22.3855C0.649959 21.3319 1.34987 18.8482 1.7591 17.5022C-1.31 12.0257 0.759496 3.9353 7.64563 1.17948ZM7.33069 9.81227C7.33069 10.2149 7.65712 10.5414 8.05985 10.5414H15.9374C16.3401 10.5414 16.6666 10.2149 16.6666 9.81227C16.6666 9.40953 16.3401 9.0831 15.9374 9.0831H8.05985C7.65712 9.0831 7.33069 9.40953 7.33069 9.81227ZM8.06242 13.4435C7.65969 13.4435 7.33325 13.7699 7.33325 14.1727C7.33325 14.5754 7.65969 14.9018 8.06242 14.9018H13.6041C14.0068 14.9018 14.3333 14.5754 14.3333 14.1727C14.3333 13.7699 14.0068 13.4435 13.6041 13.4435H8.06242Z" fill="white"/>
</svg>
