<svg width="15" height="21" viewBox="0 0 15 21" fill="none" xmlns="http://www.w3.org/2000/svg">
<path d="M13.9453 10.3359C14.3984 10.3359 14.7656 10.7032 14.7656 11.1562C14.7656 14.9562 11.8947 18.0857 8.20358 18.494L8.20312 20.1797C8.20312 20.6327 7.83586 21 7.38281 21C6.95808 21 6.60874 20.6772 6.56674 20.2636L6.5625 20.1797L6.5627 18.494C2.87124 18.0861 0 14.9565 0 11.1562C0 10.7032 0.367266 10.3359 0.820312 10.3359C1.27336 10.3359 1.64062 10.7032 1.64062 11.1562C1.64062 14.3276 4.21149 16.8984 7.38281 16.8984C10.5541 16.8984 13.125 14.3276 13.125 11.1562C13.125 10.7032 13.4923 10.3359 13.9453 10.3359ZM7.38281 0C9.37621 0 10.9922 1.61597 10.9922 3.60937V10.8281C10.9922 12.8215 9.37621 14.4375 7.38281 14.4375C5.38941 14.4375 3.77344 12.8215 3.77344 10.8281V3.60937C3.77344 1.61597 5.38941 0 7.38281 0Z" fill="white"/>
</svg>
