<svg width="28" height="26" viewBox="0 0 28 26" fill="none" xmlns="http://www.w3.org/2000/svg">
<path d="M2.33094 0.168285L26.4124 11.6855C27.1242 12.026 27.4252 12.8789 27.0848 13.5906C26.944 13.885 26.7068 14.1223 26.4124 14.2631L2.33094 25.7802C1.61918 26.1207 0.766217 25.8197 0.425817 25.1079C0.277885 24.7985 0.246137 24.4464 0.336342 24.1157L2.74497 15.2837C2.80531 15.0624 2.99209 14.8988 3.21935 14.8678L14.8886 13.2828C14.9892 13.2684 15.0725 13.2023 15.111 13.112L15.131 13.0404C15.1502 12.9064 15.0732 12.7809 14.9524 12.7338L14.8886 12.717L3.23301 11.132C3.00578 11.1012 2.81904 10.9374 2.75871 10.7161L0.336342 1.83292C0.128742 1.07175 0.57752 0.286399 1.3387 0.0788105C1.66946 -0.0113952 2.02165 0.0203533 2.33094 0.168285Z" fill="#2F4B66"/>
</svg>
