<svg width="23" height="23" viewBox="0 0 23 23" fill="none" xmlns="http://www.w3.org/2000/svg">
<path d="M1.92831 0.981841C1.6668 0.720332 1.24281 0.720323 0.981291 0.981841C0.719782 1.24335 0.719773 1.66734 0.981291 1.92886L3.03625 3.98385C1.74693 4.27923 0.785157 5.43349 0.785157 6.81239V16.1874C0.785157 17.79 2.08433 19.0892 3.68694 19.0892H12.1711C13.7372 19.0892 15.0136 17.8485 15.0709 16.2964V16.0187L21.0703 22.0183C21.3319 22.2798 21.7559 22.2798 22.0174 22.0183C22.2789 21.7568 22.2789 21.3328 22.0174 21.0712L1.92831 0.981841Z" fill="white"/>
<path d="M6.75195 3.91064L15.0718 12.2306V6.70342C15.0144 5.15131 13.7381 3.91064 12.172 3.91064H6.75195Z" fill="white"/>
<path d="M16.4102 13.5699L20.5757 17.7356C21.0889 17.6627 21.5423 17.2385 21.5423 16.6283V6.36258C21.5423 5.36706 20.3377 4.86965 19.6352 5.57516L16.4102 8.81467V13.5699Z" fill="white"/>
</svg>
