<svg class="icon" viewBox="0 0 28 28" xmlns="http://www.w3.org/2000/svg">
    <path d="M18.7422211,17.3296167 L25.9802714,25.0668429 C26.3575687,25.4701606 26.3364749,26.1029741 25.9331571,26.4802714 C25.5298394,26.8575687 24.8970259,26.8364749 24.5197286,26.4331571 L17.3269914,18.7443691 C15.6033782,20.1542042 13.4004622,21 11,21 C5.4771525,21 1,16.5228475 1,11 C1,5.4771525 5.4771525,1 11,1 C16.5228475,1 21,5.4771525 21,11 C21,13.4016811 20.153345,15.6056153 18.7422211,17.3296167 Z M11,19 C15.418278,19 19,15.418278 19,11 C19,6.581722 15.418278,3 11,3 C6.581722,3 3,6.581722 3,11 C3,15.418278 6.581722,19 11,19 Z"/>
</svg>
