<svg class="logo" viewBox="0 0 136.84 121.59">
    <path d="M22.31 84.49l-1.24-.32H18.9l-.33.32v13.07l.37 1.1h-3.65l.37-1.1V84.49l-.34-.32h-2.23l-1.19.32.53-3.26h9.33zM37.12 98.66h-3.64l.25-.69-.64-2.66-.35-.31h-2.86l-.35.34-.64 2.66.25.69H25.5l.57-1.17 3.58-15.25-.32-1h4l-.32 1 3.58 15.25zM30.47 92h1.7l.27-.26-1.12-5.57-1.12 5.61zM46.38 98.66h-3.6l.37-1.1v-15.2l-.37-1.13h3.6L46 82.36v15.2zM61.47 98.66h-8.72l.37-1.1v-15.2l-.37-1.13h3.6L56 82.36v13.07l.34.32h4.46l1.2-.32zM80 97.61l.27 1h-4l.28-1-2-10-1.92 10 .27 1h-4l.28-1-3.11-14.68-.67-1.7H69l-.2.67 2.09 10.55L73 82.2l-.25-1h3.65l-.26 1 2.11 10.25 2.06-10.55-.25-.67h3.64l-.7 1.68zM93 98.66h-3.6l.37-1.1v-15.2l-.37-1.13H93l-.37 1.13v15.2zM102.93 98.66h-3.6l.37-1.1v-15.2l-.37-1.13h3.23l4.22 10.62v-9.49l-.36-1.13h3.64l-.36 1.13v15.2l.36 1.1h-3.28l-4.22-10.59v9.49zM116.43 81.23h7.62l1.46 1.43v14.56l-1.46 1.44h-7.62l.32-1.12v-15.2zm3.24 14.15l.34.35h2.22l.35-.35V84.44l-.35-.34H120l-.34.34zM27.23 107.41l-1.23-.32h-2.19l-.32.32v13.08l.37 1.1h-3.65l.37-1.1v-13.08l-.34-.32H18l-1.19.32.53-3.25h9.33zM33 121.59l.37-1.1v-15.21l-.37-1.12h7.61l1.47 1.42v7.93L40.59 115l1.26 5.44.46 1.17h-3.6l.26-1.08-1.24-5.25-.23-.28h-.94l-.35.35v5.16l.37 1.1zm5.82-9.5l.35-.32v-4.36l-.35-.32h-2.26l-.35.32v4.36l.35.32zM59.53 121.59h-3.65l.26-.69-.65-2.66-.34-.35h-2.87l-.34.35-.64 2.66.25.69H47.9l.58-1.17 3.57-15.25-.32-1h4l-.32 1L59 120.42zM52.88 115h1.7l.27-.25-1.12-5.58-1.13 5.58zM65.19 104.16h7.61l1.47 1.42v14.56l-1.47 1.45h-7.61l.32-1.13v-15.2zm3.23 14.15l.35.34H71l.34-.34v-10.94L71 107h-2.23l-.35.35zM80.82 121.59l.37-1.13v-15.2l-.37-1.1h8.72l.52 3.21-1.19-.37H84.4l-.34.35V111l.34.34h1.47L87 111v3.64l-1.12-.37H84.4l-.34.33v3.76l.34.34h4.47l1.19-.34-.52 3.28zM95.86 121.59l.37-1.1v-15.21l-.37-1.12h7.61l1.47 1.42v7.93l-1.47 1.49 1.26 5.44.46 1.17h-3.6l.25-1.08-1.23-5.25-.23-.28h-.94l-.35.35v5.16l.37 1.1zm5.82-9.5l.35-.32v-4.36l-.35-.32h-2.24l-.35.32v4.36l.35.32zM120.87 109.66h-3.64l.34-1.1v-1.15l-.34-.32H115l-.34.32v3.67l.34.35h4l1.44 1.44v7.27l-1.44 1.45h-5.8l-1.52-1.45v-2.93l-.32-1.11H115l-.36 1.11v1.14l.34.32h2.23l.34-.32v-3.67l-.34-.34h-4l-1.52-1.47v-7.29l1.52-1.42H119l1.44 1.42v3zM80.16 0H0v22.78h23v47.03h23.42V36.18l22-19.14 22.01 19.14v33.63h23.43V22.78h22.98V0H80.16z"/>
    <path d="M60.1 52.48h16.64v17.33H60.1z"/>
</svg>
